<svg xmlns="http://www.w3.org/2000/svg" xmlns:xlink="http://www.w3.org/1999/xlink" id="type" x="0px" y="0px" viewBox="0 0 135 135" width="135px" height="135px" xml:space="preserve"><circle fill="#FFFFFF" cx="67.5" cy="67.5" r="66.9"></circle><path fill="#91B5C7" d="M67.5,1.19c36.6,0,66.31,29.65,66.31,66.31s-29.71,66.31-66.31,66.31S1.19,104.1,1.19,67.5l0,0 C1.26,30.9,30.9,1.26,67.5,1.19 M67.5,0C30.24,0,0,30.24,0,67.5S30.24,135,67.5,135S135,104.76,135,67.5S104.76,0,67.5,0z"></path><path fill="#91B5C7" d="M71.21,82.46l-5.29,21.24c-0.13,0.26-0.4,0.4-0.73,0.33c-0.2-0.07-0.4-0.33-0.33-0.53l-1.19-21.84 l-11.05,6.75c-0.26,0.13-0.6,0.07-0.73-0.26c-0.13-0.2-0.07-0.46,0.07-0.6l5.36-8.4L31.3,81.86c-0.26,0.07-0.53-0.13-0.6-0.4 c-0.07-0.26,0.07-0.6,0.33-0.66l19.79-8.14l-18.6-3.04c-0.26-0.07-0.46-0.33-0.4-0.6c0.07-0.26,0.26-0.46,0.6-0.46l24.29-1.46 L44.34,42.95c-0.13-0.26-0.07-0.53,0.13-0.73c0.2-0.2,0.53-0.13,0.73,0.07l19.79,19.26l5.16-33.09c0-0.33,0.26-0.53,0.6-0.53 s0.53,0.26,0.53,0.6l1.12,33.22l6.82-7.28c0.2-0.2,0.53-0.26,0.79,0c0.13,0.13,0.2,0.33,0.13,0.53l-0.13,7.74l20.18-9.2 c0.26-0.13,0.53,0,0.66,0.2c0.13,0.26,0.13,0.53-0.13,0.73L80.34,70.74l14.23,7.81c0.26,0.13,0.33,0.4,0.26,0.66 c-0.07,0.26-0.33,0.4-0.6,0.4l-14.76-0.4l15.29,22.7c18.86-14.96,21.97-42.42,7.01-61.21s-42.49-21.97-61.35-7.01 S18.46,76.1,33.49,94.9c14.03,17.67,39.24,21.71,58.1,9.26L71.21,82.46z"></path><path d="M52.28,124.87l0.26-1.19l4.04-3.18c0.33-0.26,0.53-0.6,0.66-0.99c0.13-0.53-0.13-1.06-0.66-1.26c-0.07,0-0.07,0-0.13,0 c-0.6-0.13-1.19,0.26-1.32,0.86c0,0.07,0,0.07,0,0.13l-1.52-0.33c0.2-1.32,1.46-2.25,2.85-1.99c0.13,0,0.26,0.07,0.33,0.07 c1.32,0.13,2.25,1.39,2.05,2.65c0,0.07,0,0.13-0.07,0.2c-0.2,0.73-0.66,1.39-1.32,1.85l-2.85,2.25l3.31,0.73L57.64,126L52.28,124.87 z"></path><path d="M65.85,126.2c-0.53,0.46-1.26,0.73-1.99,0.66c-0.73,0-1.46-0.33-1.92-0.86c-0.79-0.86-0.86-2.32-0.79-3.71 s0.33-2.78,1.26-3.57c1.19-0.93,2.85-0.86,3.9,0.26c0.79,0.93,0.86,2.32,0.79,3.71C67.04,124.08,66.77,125.4,65.85,126.2z  M64.32,119.45c-1.59-0.07-1.52,1.79-1.59,2.91c-0.07,1.12-0.33,2.98,1.26,3.04c1.59,0.07,1.52-1.79,1.59-2.91 S65.85,119.58,64.32,119.45z"></path><path d="M70.08,126.79l-0.13-1.19l2.91-4.17c0.26-0.33,0.33-0.73,0.33-1.12c0-0.53-0.46-0.99-0.99-0.99c-0.07,0-0.13,0-0.13,0 c-0.6,0.07-1.06,0.6-1.06,1.19c0,0.07,0,0.07,0,0.13l-1.52,0.13c-0.2-1.32,0.73-2.58,2.12-2.78c0.13,0,0.26,0,0.4,0 c1.32-0.2,2.51,0.66,2.78,1.92c0,0.07,0,0.13,0,0.2c0,0.79-0.26,1.52-0.73,2.12L72,125.21l3.38-0.26l0.13,1.39L70.08,126.79z"></path><path d="M80.8,125.27l-1.52-6.49l-1.52,1.72l-0.4-1.59l1.72-1.92l1.26-0.26l1.92,8.21L80.8,125.27z"></path><path d="M30.04,101.65l-0.6,0.86c0.93-0.2,1.85,0.13,2.51,0.79c0.6,0.6,0.99,1.39,0.99,2.25c0,1.26-0.66,2.25-1.72,3.31 c-0.99,0.99-1.99,1.72-3.31,1.72c-1.85-0.07-3.31-1.52-3.37-3.38c0-0.66,0.26-1.26,0.66-1.72l0.79,0.79c-0.2,0.26-0.4,0.6-0.4,0.93 c0,0.66,0.26,1.26,0.73,1.65c0.4,0.4,0.99,0.66,1.59,0.66c0.99,0,1.85-0.79,2.51-1.46c0.66-0.66,1.46-1.52,1.46-2.58 c0-0.6-0.26-1.12-0.66-1.52s-0.93-0.66-1.52-0.66c-0.79,0.07-1.52,0.4-2.05,1.06l1.65,1.65l-0.73,0.73l-2.32-2.32l3.31-3.31 L30.04,101.65z"></path><path d="M26.14,96.42c1.12,1.59,0.86,3.24-0.93,4.5l-4.5,3.11l-0.6-0.86l4.5-3.18c1.12-0.79,1.52-1.79,0.66-2.98 s-1.92-1.19-3.04-0.4l-4.5,3.18l-0.6-0.86l4.5-3.11C23.36,94.57,25.01,94.83,26.14,96.42z"></path><path d="M22.7,91.06l-7.68,3.9l-0.53-0.99l7.68-3.9L22.7,91.06z"></path><path d="M18.07,82.26c0.73,0.4,1.32,1.06,1.59,1.85l0.99,2.85l-8.14,2.85l-0.99-2.85c-0.26-0.79-0.26-1.65,0.07-2.45 c0.53-1.19,1.72-1.79,2.85-2.18S16.94,81.66,18.07,82.26z M12.51,84.97c-0.26,0.53-0.26,1.12-0.07,1.65l0.66,1.79l6.22-2.18 l-0.66-1.79c-0.2-0.53-0.53-0.99-1.06-1.26c-0.86-0.4-1.92-0.13-2.78,0.2C13.96,83.71,12.97,84.04,12.51,84.97z"></path><path d="M18,78.49l-8.54,1.39l-0.93-5.69l0.99-0.13l0.79,4.63l2.58-0.46l-0.66-4.04l0.99-0.13l0.66,4.04l2.91-0.46l-0.79-4.63 l0.99-0.13L18,78.49z"></path><path d="M16.15,65.12c1.12,1.39,1.19,3.44,0.13,4.9c-0.53,0.6-1.26,0.93-2.05,0.93v-1.12c0.53-0.07,0.99-0.26,1.32-0.66 c0.4-0.46,0.53-1.06,0.53-1.65s-0.13-1.12-0.53-1.59c-0.26-0.26-0.66-0.46-0.99-0.4c-0.66,0-1.26,0.46-1.39,1.46 c-0.07,0.46-0.13,0.93-0.2,1.39c-0.2,1.32-0.86,2.32-2.25,2.32c-0.66,0-1.26-0.26-1.72-0.73c-1.12-1.26-1.19-3.18-0.07-4.5 c0.46-0.53,1.12-0.86,1.85-0.86v1.12c-0.4,0-0.79,0.2-1.06,0.46C8.93,67.04,9,68.36,9.79,69.22c0.26,0.2,0.6,0.33,0.93,0.33 c0.79,0,1.13-0.66,1.19-1.32c0.07-0.46,0.13-0.99,0.2-1.46c0.2-1.46,1.06-2.38,2.38-2.45C15.09,64.39,15.68,64.65,16.15,65.12z"></path><path d="M9.93,58.57l7.54,1.12l-0.13,1.06l-7.48-1.12l-0.4,2.51l-0.99-0.13l0.93-6.15l0.99,0.13L9.93,58.57z"></path><path d="M19.79,50.43l-2.18,0.07l-1.06,3.64l1.72,1.26l-0.33,1.06l-7.35-5.43l0.33-1.19l9.13-0.46L19.79,50.43z M11.85,50.76 l3.84,2.78l0.86-2.91L11.85,50.76z"></path><path d="M23.16,42.95l-3.97-0.13l-1.06,2.12l3.24,1.59l-0.46,0.99l-7.68-3.84l1.52-3.04c0.33-0.73,0.93-1.32,1.65-1.65 c0.6-0.2,1.32-0.13,1.85,0.2c0.6,0.26,0.99,0.73,1.26,1.32c0.13,0.4,0.13,0.79,0.07,1.19l4.17,0.13L23.16,42.95z M15.62,41.03 l-1.06,2.12l2.71,1.32l0.99-2.05c0.46-0.93,0.4-1.72-0.6-2.25C16.68,39.64,16.01,40.17,15.62,41.03z"></path><path d="M28.65,28.92c0,0.79-0.33,1.52-0.86,2.05l-1.46,1.59l2.51,2.25l-0.73,0.79l-6.42-5.76l2.12-2.38 c0.46-0.66,1.26-1.06,2.05-1.12C27.26,26.4,28.46,27.53,28.65,28.92L28.65,28.92z M24.55,28.12l-1.39,1.59l2.45,2.18L27,30.31 c0.79-0.86,0.79-1.65-0.07-2.45C26.07,27.07,25.28,27.33,24.55,28.12z"></path><path d="M33.62,29.85l-5.49-6.62l0.79-0.66l4.83,5.82l3.18-2.65l0.66,0.79L33.62,29.85z"></path><path d="M44.27,22.43l-1.65-1.39l-3.24,1.85l0.4,2.12l-0.93,0.53l-1.72-9l1.12-0.66l6.95,5.96L44.27,22.43z M38.25,17.21l0.93,4.63 l2.65-1.52L38.25,17.21z"></path><path d="M45.93,13.37l2.91,7.01l-0.99,0.4l-2.91-7.01l-2.38,0.99l-0.4-0.93l5.76-2.38l0.4,0.93L45.93,13.37z"></path><path d="M53.34,18.86l-2.32-8.27l1.06-0.26l2.32,8.27L53.34,18.86z"></path><path d="M62.8,17.07l-5.1-6.29l0.93,6.88l-1.06,0.07L56.45,9.2l1.19-0.13l5.1,6.35l-0.93-6.88l1.06-0.13l1.12,8.54L62.8,17.07z"></path><path d="M69.95,17.07c-1.92-0.07-3.11-1.32-2.98-3.44l0.26-5.43l1.06,0.07l-0.26,5.49c-0.07,1.39,0.46,2.32,1.99,2.38 c1.52,0.07,2.12-0.79,2.18-2.18l0.26-5.49l1.06,0.07l-0.26,5.43C73.12,16.08,71.87,17.21,69.95,17.07z"></path><path d="M82.85,19.12l1.79-7.01l-4.3,6.29l-0.79-0.2l-0.86-7.61l-1.79,7.08L75.9,17.4l2.12-8.34l1.52,0.4l0.79,7.41l4.24-6.15 l1.46,0.4l-2.05,8.34L82.85,19.12z"></path><path d="M96.22,16.81l-3.71,6.68l-0.93-0.53l3.71-6.68l-2.25-1.26l0.46-0.86l5.43,3.04l-0.46,0.86L96.22,16.81z"></path><path d="M100.32,28.92l0.93-3.84l-1.85-1.46l-2.18,2.85l-0.86-0.66l5.29-6.82l2.65,2.05c0.66,0.46,1.12,1.12,1.26,1.92 c0.07,0.66-0.13,1.32-0.53,1.79c-0.4,0.53-0.93,0.86-1.59,0.93c-0.4,0.07-0.79,0-1.19-0.13l-0.99,4.04L100.32,28.92z M103.63,21.84 l-1.79-1.39l-1.85,2.38l1.79,1.39c0.79,0.6,1.65,0.73,2.32-0.13C104.76,23.23,104.49,22.5,103.63,21.84L103.63,21.84z"></path><path d="M106.87,35.54l1.06-1.85l-2.51-2.78l-1.99,0.86l-0.73-0.79l8.47-3.51l0.86,0.93l-4.43,8.01L106.87,35.54z M110.71,28.59 l-4.37,1.85l2.05,2.25L110.71,28.59z"></path><path d="M111.57,42.55l3.64-7.28l-5.89,3.64l-0.53-0.86l7.35-4.57l0.66,1.06l-3.71,7.28l5.89-3.64l0.53,0.86l-7.35,4.57 L111.57,42.55z"></path><path d="M116.21,50.96c-0.79-0.4-1.39-1.12-1.72-1.99c-0.4-0.79-0.4-1.72-0.13-2.58c0.26-0.73,0.86-1.32,1.59-1.59l0.4,1.06 c-0.46,0.2-0.86,0.6-1.06,1.06c-0.2,0.6-0.13,1.19,0.13,1.72c0.2,0.53,0.53,1.06,1.06,1.32c0.33,0.2,0.73,0.2,1.12,0.07 c0.6-0.26,0.99-0.86,0.73-1.85c-0.07-0.46-0.2-0.86-0.33-1.32c-0.26-1.26,0-2.45,1.26-2.98c0.6-0.2,1.26-0.2,1.85,0.07 c0.73,0.33,1.32,0.99,1.59,1.79c0.33,0.73,0.33,1.59,0.07,2.38c-0.26,0.66-0.79,1.19-1.39,1.46l-0.4-1.06 c0.33-0.13,0.66-0.46,0.86-0.79c0.4-1.12-0.07-2.32-1.12-2.85c-0.33-0.13-0.66-0.13-0.99,0c-0.6,0.26-0.93,0.99-0.66,1.65 c0.13,0.46,0.2,0.93,0.33,1.39c0.33,1.39-0.13,2.65-1.39,3.11C117.4,51.22,116.74,51.22,116.21,50.96z"></path><path d="M121.57,58.76c-0.6-0.46-0.99-1.19-1.12-1.92l-0.46-2.05l-3.24,0.66l-0.2-1.06l8.4-1.79l0.66,3.11 c0.2,0.79,0.13,1.59-0.33,2.32c-0.4,0.53-0.99,0.93-1.65,0.99C122.96,59.23,122.16,59.16,121.57,58.76z M124.61,55.92l-0.46-2.05 l-3.24,0.66l0.46,2.05c0.26,1.12,0.86,1.59,1.99,1.32C124.48,57.64,124.81,56.98,124.61,55.92z"></path><path d="M118.19,67.24l1.99-0.79l-0.2-3.71l-2.05-0.6l-0.07-1.12l8.8,2.51l0.07,1.26l-8.4,3.51L118.19,67.24z M125.6,64.19 l-4.57-1.26l0.13,3.04L125.6,64.19z"></path><path d="M117.53,75.71l3.77-1.19l0.26-2.38l-3.57-0.4l0.13-1.06l8.54,0.99l-0.4,3.37c-0.07,0.79-0.4,1.59-0.99,2.12 c-0.53,0.4-1.19,0.53-1.85,0.46c-0.66-0.07-1.19-0.33-1.59-0.86c-0.26-0.33-0.4-0.66-0.46-1.12l-3.97,1.26L117.53,75.71z  M125.27,74.91l0.26-2.25l-2.98-0.33l-0.26,2.25c-0.13,0.99,0.2,1.79,1.32,1.92C124.74,76.63,125.14,75.9,125.27,74.91L125.27,74.91 z"></path><path d="M116.8,79.35l8.27,2.45l-1.59,5.49l-0.93-0.26l1.32-4.5l-2.51-0.73l-1.19,3.97l-0.99-0.26l1.19-3.97l-2.85-0.86l-1.32,4.5 l-0.93-0.26L116.8,79.35z"></path><path d="M111.84,91.99l8.07-0.66l-6.22-3.11l0.46-0.93l7.68,3.9l-0.53,1.06l-8.07,0.66l6.22,3.11l-0.46,0.93l-7.68-3.9L111.84,91.99 z"></path><path d="M107.14,100.32c-0.2-1.79,0.99-3.44,2.78-3.71c1.32-0.2,2.38,0.46,3.51,1.26c1.12,0.79,2.05,1.72,2.18,2.98 c0.13,0.86-0.13,1.72-0.66,2.45c-0.46,0.73-1.26,1.19-2.12,1.32c-0.73,0.13-1.46-0.07-2.05-0.53l0.66-0.93 c0.4,0.26,0.79,0.4,1.26,0.33c0.6-0.07,1.12-0.4,1.46-0.86c0.33-0.46,0.53-1.06,0.4-1.65c-0.13-0.99-1.06-1.72-1.79-2.25 c-0.73-0.53-1.65-1.19-2.65-1.06c-0.6,0.07-1.12,0.4-1.46,0.86s-0.53,1.06-0.4,1.65c0.13,0.46,0.33,0.86,0.73,1.12l-0.66,0.93 C107.6,101.78,107.21,101.05,107.14,100.32z"></path><path d="M104.76,106.74l-2.45-2.51l0.79-0.73l2.45,2.51l5.62,1.65l-0.86,0.86l-4.5-1.39l1.26,4.5l-0.79,0.79L104.76,106.74z"></path></svg>